HIERARCHY
ROOT Hips
{
 OFFSET 0.000000 0.000000 0.000000
 CHANNELS 6 Xposition Yposition Zposition Yrotation Xrotation Zrotation
 JOINT Chest
 {
  OFFSET 0.000000 9.585900 0.002600
  CHANNELS 3 Yrotation Xrotation Zrotation
  JOINT Chest2
  {
   OFFSET 0.000000 9.601200 -0.005300
   CHANNELS 3 Yrotation Xrotation Zrotation
   JOINT Chest3
   {
    OFFSET 0.000000 9.561800 0.000000
    CHANNELS 3 Yrotation Xrotation Zrotation
    JOINT Chest4
    {
     OFFSET 0.000000 9.552100 0.000000
     CHANNELS 3 Yrotation Xrotation Zrotation
     JOINT Neck
     {
      OFFSET 0.000000 14.453000 0.000000
      CHANNELS 3 Yrotation Xrotation Zrotation
      JOINT Head
      {
       OFFSET 0.000000 8.936500 -0.011300
       CHANNELS 3 Yrotation Xrotation Zrotation
       End Site
       {
        OFFSET 0.000000 17.073600 -0.006000
       }
      }
     }
     JOINT RightCollar
     {
      OFFSET -2.921100 9.558500 0.000000
      CHANNELS 3 Yrotation Xrotation Zrotation
      JOINT RightShoulder
      {
       OFFSET -13.519700 0.000000 0.000000
       CHANNELS 3 Yrotation Xrotation Zrotation
       JOINT RightElbow
       {
        OFFSET 0.000000 -29.696600 0.000000
        CHANNELS 3 Yrotation Xrotation Zrotation
        JOINT RightWrist
        {
         OFFSET 0.000000 -24.004700 0.000000
         CHANNELS 3 Yrotation Xrotation Zrotation
         End Site
         {
          OFFSET 0.000000 -17.728500 0.000000
         }
        }
       }
      }
     }
     JOINT LeftCollar
     {
      OFFSET 2.921100 9.558500 0.000000
      CHANNELS 3 Yrotation Xrotation Zrotation
      JOINT LeftShoulder
      {
       OFFSET 13.519700 0.000000 0.000000
       CHANNELS 3 Yrotation Xrotation Zrotation
       JOINT LeftElbow
       {
        OFFSET 0.000000 -29.696600 0.000000
        CHANNELS 3 Yrotation Xrotation Zrotation
        JOINT LeftWrist
        {
         OFFSET 0.000000 -24.004700 0.000000
         CHANNELS 3 Yrotation Xrotation Zrotation
         End Site
         {
          OFFSET 0.000000 -17.728500 0.000000
         }
        }
       }
      }
     }
    }
   }
  }
 }
 JOINT RightHip
 {
  OFFSET -7.771700 -0.012900 -0.001300
  CHANNELS 3 Yrotation Xrotation Zrotation
  JOINT RightKnee
  {
   OFFSET 0.000000 -40.869800 0.001200
   CHANNELS 3 Yrotation Xrotation Zrotation
   JOINT RightAnkle
   {
    OFFSET 0.000000 -39.717900 0.002100
    CHANNELS 3 Yrotation Xrotation Zrotation
    JOINT RightToe
    {
     OFFSET 0.000000 -4.965400 11.033500
     CHANNELS 3 Yrotation Xrotation Zrotation
     End Site
     {
      OFFSET 0.000000 -1.423100 5.872300
     }
    }
   }
  }
 }
 JOINT LeftHip
 {
  OFFSET 7.771700 -0.012900 -0.001300
  CHANNELS 3 Yrotation Xrotation Zrotation
  JOINT LeftKnee
  {
   OFFSET 0.000000 -40.869800 0.001200
   CHANNELS 3 Yrotation Xrotation Zrotation
   JOINT LeftAnkle
   {
    OFFSET 0.000000 -39.717900 0.002100
    CHANNELS 3 Yrotation Xrotation Zrotation
    JOINT LeftToe
    {
     OFFSET 0.000000 -4.965400 11.033500
     CHANNELS 3 Yrotation Xrotation Zrotation
     End Site
     {
      OFFSET 0.000000 -1.423100 5.872300
     }
    }
   }
  }
 }
}
MOTION
Frames: 16
Frame Time: 0.008333
0.000000 85.388000 0.000000 0.000000 -5.767877 0.000000 0.000000 11.653817 0.000000 0.000000 -5.885947 0.000000 0.000000 -0.000000 0.000000 0.000000 -0.000000 0.000000 0.000000 12.528835 0.000000 0.000000 0.711642 0.000000 0.000000 -0.000000 0.000000 0.000000 0.000000 -90.000000 0.000000 -2.309062 0.000000 0.000000 2.309062 0.000000 0.000000 -0.000000 0.000000 0.000000 -0.000000 90.000000 0.000000 -2.309062 0.000000 0.000000 2.309062 0.000000 0.000000 8.520406 0.000000 0.000000 1.905762 0.000000 -0.000000 -4.658285 0.000000 0.000000 -0.000000 0.000000 0.000000 8.520406 0.000000 0.000000 1.905762 0.000000 -0.000000 -4.658285 0.000000 0.000000 -0.000000 0.000000
2.022462 52.207889 35.652207 171.404084 -34.944606 -1.509497 4.267777 22.811101 2.227226 0.493968 3.288245 0.413558 0.836972 5.240078 0.662690 3.421414 18.917212 2.850969 1.910352 14.011810 -0.735939 3.904904 -9.594411 -2.090507 -3.082580 -2.018588 -2.747133 -2.400473 -13.781425 -0.048602 -169.891629 -61.805064 -174.530047 -0.502375 -12.977196 -20.649024 -6.675479 -0.432447 -0.544661 5.721836 -20.263275 1.239558 -179.989557 -57.795667 168.142524 -5.499489 -20.473294 26.564219 -4.188874 -46.196643 3.806392 175.357831 85.754244 179.017469 -2.830372 -12.561600 -2.188757 0.073403 -0.334704 0.051257 -0.745400 -42.530696 4.131407 74.258632 82.415261 64.395803 -4.632246 -13.253308 8.999249 0.174555 1.784788 -0.040322
2.030891 52.208176 35.638357 171.363990 -34.951982 -1.507627 4.293182 22.864353 2.257494 0.496476 3.291333 0.412697 0.841587 5.232442 0.660152 3.424863 18.907628 2.847947 1.919368 14.027198 -0.736757 3.947293 -9.502992 -2.093311 -3.060634 -1.961297 -2.730406 -2.287333 -13.923652 0.036029 -169.708640 -62.091982 -174.747670 -0.556152 -12.833020 -20.655567 -6.691512 -0.374678 -0.530215 5.709560 -20.316724 1.179119 179.818629 -58.061648 168.332847 -5.477516 -20.380163 26.546572 -4.188137 -46.188818 3.849013 175.345947 85.744874 179.008041 -2.832286 -12.561566 -2.198792 0.072938 -0.332485 0.047821 -0.762005 -42.521727 4.147354 74.371085 82.444540 64.527534 -4.591107 -13.278215 8.992093 0.175153 1.787096 -0.040196
2.049917 52.206065 35.627569 171.270298 -34.934490 -1.536991 4.374759 22.934071 2.357949 0.511513 3.248238 0.401550 0.852180 5.195956 0.649138 3.426158 18.926008 2.855595 1.938770 14.085375 -0.726563 3.980251 -9.466786 -2.114409 -3.042241 -1.903276 -2.709288 -2.170618 -14.054340 0.113888 -169.513644 -62.351410 -174.974711 -0.623025 -12.682433 -20.730533 -6.702280 -0.335621 -0.515641 5.694148 -20.335748 1.127508 179.583412 -58.306356 168.550123 -5.456334 -20.303908 26.539434 -4.209559 -46.201938 3.986906 175.327533 85.752197 179.004358 -2.832470 -12.550785 -2.219830 0.065844 -0.326170 0.042653 -0.772693 -42.543577 4.244404 74.530663 82.499617 64.751368 -4.600258 -13.324017 8.936147 0.243465 1.806251 -0.005977
2.056089 52.203172 35.613512 171.231473 -34.911774 -1.515713 4.391094 22.961062 2.364289 0.511847 3.251711 0.401976 0.853299 5.196778 0.648850 3.429160 18.933360 2.856638 1.956746 14.108250 -0.732268 4.015012 -9.434328 -2.137526 -3.023863 -1.873307 -2.693251 -2.047477 -14.170270 0.185462 -169.364380 -62.574309 -175.164428 -0.691768 -12.527593 -20.871069 -6.708430 -0.324123 -0.504268 5.677725 -20.341016 1.083412 179.331667 -58.521288 168.781181 -5.437233 -20.228386 26.554246 -4.198567 -46.230128 4.002301 175.218313 85.734011 178.898541 -2.835866 -12.560860 -2.234060 0.070529 -0.318591 0.039688 -0.788891 -42.560932 4.236824 74.704749 82.498277 64.935598 -4.582121 -13.356899 8.919352 0.253224 1.816148 -0.014397
2.060132 52.201385 35.596471 171.183993 -34.901301 -1.471370 4.409533 23.001802 2.352052 0.512392 3.255414 0.402723 0.850944 5.202314 0.650841 3.428201 18.941430 2.857116 1.989320 14.183988 -0.728674 4.039799 -9.467947 -2.179433 -3.000384 -1.852434 -2.677808 -1.920036 -14.264859 0.251826 -169.315046 -62.756005 -175.268828 -0.753772 -12.380671 -21.057777 -6.707340 -0.315435 -0.493192 5.657214 -20.336361 1.050795 179.093163 -58.702083 169.000858 -5.416801 -20.147879 26.602728 -4.156686 -46.250640 3.986527 175.020140 85.708734 178.705718 -2.849566 -12.570231 -2.245466 0.074305 -0.309956 0.035677 -0.824977 -42.560958 4.205686 74.944802 82.472645 65.165801 -4.517195 -13.399521 8.895277 0.223978 1.827036 -0.037569
2.061897 52.195623 35.584704 171.176105 -34.847248 -1.438586 4.392838 22.986853 2.322652 0.513182 3.258273 0.403471 0.846337 5.224066 0.655053 3.428433 18.950566 2.859726 2.015383 14.213278 -0.736225 4.064037 -9.463733 -2.208764 -2.979973 -1.859622 -2.670367 -1.789452 -14.313056 0.325362 -169.378417 -62.892740 -175.280379 -0.805665 -12.262071 -21.248427 -6.704712 -0.305459 -0.479447 5.637672 -20.321868 1.030650 178.871194 -58.841675 169.197639 -5.392723 -20.062891 26.684340 -4.162513 -46.319431 3.971966 174.920159 85.678835 178.595749 -2.846871 -12.570477 -2.261941 0.070229 -0.322534 0.036910 -0.834642 -42.609592 4.164531 75.067941 82.459095 65.281520 -4.500545 -13.417660 8.892081 0.212487 1.836832 -0.030227
2.065342 52.191308 35.571802 171.184886 -34.804894 -1.422186 4.371720 22.958408 2.298035 0.507290 3.298467 0.412964 0.848509 5.228987 0.657933 3.435883 18.958502 2.865690 2.025059 14.226085 -0.749228 4.086272 -9.441024 -2.231523 -2.961689 -1.850174 -2.652382 -1.670994 -14.349274 0.387718 -169.512105 -62.980727 -175.240270 -0.843364 -12.200292 -21.387179 -6.714741 -0.285150 -0.462729 5.629699 -20.297513 1.020502 178.657319 -58.930902 169.372001 -5.371077 -19.975952 26.792744 -4.172347 -46.368966 3.953993 174.793945 85.653467 178.474673 -2.850328 -12.581107 -2.280501 0.072430 -0.321879 0.036181 -0.852061 -42.646039 4.132354 75.172411 82.450888 65.384890 -4.491733 -13.436031 8.877029 0.196515 1.854320 0.014263
2.075268 52.188789 35.558730 171.179357 -34.776748 -1.434384 4.371243 22.978647 2.319194 0.507037 3.313262 0.417590 0.852671 5.223946 0.655170 3.443959 18.966178 2.870166 2.035393 14.235053 -0.759039 4.106541 -9.420054 -2.253386 -2.934013 -1.829682 -2.620589 -1.574515 -14.372575 0.441462 -169.640227 -63.022276 -175.205268 -0.866264 -12.229056 -21.418753 -6.727473 -0.260453 -0.439020 5.634714 -20.261916 1.020011 178.453444 -58.963745 169.525342 -5.362212 -19.901613 26.922953 -4.202414 -46.397975 3.988584 174.656535 85.639739 178.348114 -2.850970 -12.578897 -2.302955 0.072372 -0.316702 0.034657 -0.872022 -42.672934 4.146859 75.283744 82.468883 65.521226 -4.506633 -13.452722 8.861743 0.230862 1.859940 0.031324
2.083582 52.186626 35.546365 171.147645 -34.749142 -1.422383 4.389832 22.997782 2.331678 0.506594 3.313825 0.418725 0.857434 5.233195 0.656375 3.452326 18.974239 2.874919 2.043233 14.241242 -0.768349 4.125795 -9.401812 -2.275211 -2.926601 -1.862425 -2.619205 -1.486977 -14.318109 0.531065 -169.718108 -63.020193 -175.199574 -0.882624 -12.364852 -21.304515 -6.745226 -0.232640 -0.413646 5.649639 -20.210636 1.029040 178.258428 -58.941412 169.663332 -5.373038 -19.866364 27.060556 -4.191682 -46.432393 3.993074 174.233928 85.622436 177.951203 -2.860851 -12.570288 -2.336141 0.073512 -0.322949 0.036273 -0.886304 -42.693469 4.151967 75.416632 82.473465 65.661245 -4.489990 -13.483298 8.849263 0.237945 1.868850 0.026170
2.091445 52.184884 35.535017 171.109702 -34.722480 -1.405895 4.403671 23.035006 2.345779 0.519684 3.273020 0.406776 0.855509 5.262857 0.665348 3.461867 18.982233 2.878986 2.041404 14.215896 -0.785293 4.134993 -9.393604 -2.286228 -2.907512 -1.841856 -2.593588 -1.432479 -14.292260 0.605585 -169.768304 -62.970226 -175.194089 -0.893211 -12.593639 -21.039490 -6.761838 -0.202789 -0.389154 5.671825 -20.142719 1.045498 178.111598 -58.835191 169.791092 -5.355819 -19.861427 27.138018 -4.186359 -46.466632 4.013517 174.067429 85.609259 177.792912 -2.864110 -12.560004 -2.359682 0.073920 -0.330519 0.038362 -0.893334 -42.715148 4.154245 75.551709 82.479372 65.806643 -4.475036 -13.504669 8.832557 0.248027 1.869950 0.023570
2.107286 52.184323 35.525373 171.023284 -34.704131 -1.412545 4.491603 23.031773 2.407824 0.520637 3.275108 0.407408 0.854080 5.292155 0.674343 3.471099 18.990902 2.886013 2.038251 14.189783 -0.804445 4.142920 -9.386965 -2.297552 -2.901881 -1.818048 -2.576023 -1.396958 -14.253528 0.694432 -169.849915 -62.874659 -175.137577 -0.893300 -12.887307 -20.647375 -6.773839 -0.174161 -0.370296 5.697707 -20.064409 1.066045 177.959307 -58.709575 169.915904 -5.355227 -19.933301 27.179302 -4.193801 -46.486508 4.112436 173.990225 85.611548 177.728956 -2.864933 -12.536732 -2.389769 0.071545 -0.343628 0.041628 -0.912554 -42.734857 4.222085 75.725667 82.515582 66.019432 -4.456737 -13.532592 8.795546 0.285882 1.872896 0.027961
2.112404 52.183739 35.515395 170.992165 -34.684077 -1.390114 4.499026 23.055983 2.404233 0.503794 3.327150 0.419198 0.872845 5.251827 0.663027 3.466859 19.051502 2.907537 2.051830 14.142311 -0.838398 4.181753 -9.343628 -2.326238 -2.892042 -1.863921 -2.580753 -1.376965 -14.187999 0.790016 -170.008093 -62.748381 -174.999094 -0.885901 -13.223547 -20.155483 -6.759213 -0.198884 -0.368557 5.725864 -19.982579 1.089851 177.719782 -58.604680 169.987048 -5.461706 -20.081023 27.305645 -4.177259 -46.512650 4.114365 173.893712 85.600717 177.640233 -2.867898 -12.533187 -2.407697 0.071239 -0.340525 0.042054 -0.957753 -42.750024 4.224049 75.905587 82.507283 66.179555 -4.401994 -13.546305 8.778227 0.257676 1.868055 0.025061
2.116490 52.182966 35.507198 170.968868 -34.660035 -1.371470 4.495156 23.074484 2.398731 0.506647 3.333430 0.419122 0.856469 5.316422 0.678808 3.473126 19.027390 2.896502 2.063077 14.120144 -0.857072 4.211557 -9.346133 -2.355648 -2.892718 -1.883650 -2.568937 -1.373691 -14.110285 0.869696 -170.243629 -62.606402 -174.785410 -0.877914 -13.597998 -19.579203 -6.744276 -0.192399 -0.363725 5.762706 -19.899538 1.114582 177.567707 -58.442343 170.014028 -5.514627 -20.234468 27.338326 -4.177193 -46.542240 4.116797 173.776692 85.589967 177.527681 -2.863459 -12.526232 -2.429681 0.069223 -0.338656 0.040959 -0.986984 -42.767420 4.225189 76.025148 82.505021 66.281714 -4.364897 -13.561520 8.763886 0.234672 1.869434 0.032686
2.122517 52.182915 35.499894 170.947143 -34.641814 -1.370043 4.501562 23.098646 2.411108 0.514106 3.314453 0.415816 0.848361 5.348111 0.686925 3.470622 19.041432 2.899548 2.074252 14.113940 -0.871056 4.233896 -9.370542 -2.379596 -2.906621 -1.892088 -2.545040 -1.384467 -14.018402 0.932099 -170.456809 -62.462506 -174.538927 -0.824448 -14.018595 -18.979385 -6.731986 -0.215303 -0.369470 5.811236 -19.769279 1.149351 177.447907 -58.258734 170.041409 -5.545214 -20.408543 27.271487 -4.185013 -46.564179 4.140820 173.770972 85.585283 177.530865 -2.860635 -12.509378 -2.449513 0.067822 -0.342580 0.040938 -1.008280 -42.782536 4.242807 76.133509 82.514471 66.391267 -4.355201 -13.570296 8.755106 0.239134 1.867445 0.039514
2.130726 52.183419 35.493604 170.925690 -34.628365 -1.386515 4.514392 23.124075 2.444381 0.522213 3.296983 0.411218 0.847667 5.352039 0.687914 3.460809 19.079797 2.914122 2.087553 14.156999 -0.864113 4.259986 -9.443220 -2.429961 -2.927111 -1.903951 -2.521259 -1.407139 -13.911454 0.984453 -170.831072 -62.299307 -174.204801 -0.838551 -14.477489 -18.267749 -6.720932 -0.160515 -0.363647 5.899137 -19.708780 1.145323 177.367030 -58.070511 169.987189 -5.570379 -20.610799 27.179752 -4.215154 -46.576394 4.192084 173.754591 85.587239 177.522007 -2.850943 -12.490173 -2.471189 0.066615 -0.344996 0.039652 -1.026574 -42.795052 4.278900 76.231472 82.533255 66.508332 -4.365242 -13.581088 8.738524 0.252969 1.874496 0.068867
